<?xml version="1.0" encoding="UTF-8"?>
<svg version="1.1" xmlns="http://www.w3.org/2000/svg" width="448" height="512">
<path d="M0 0 C0.86290384 -0.09131571 1.72580768 -0.18263142 2.61486012 -0.27671427 C5.50500946 -0.57704977 8.39627057 -0.86365276 11.2881012 -1.14732361 C12.30379999 -1.24864782 13.31949879 -1.34997204 14.36597633 -1.45436668 C34.87164118 -3.47677456 55.40453698 -4.6958976 75.98522854 -5.64930058 C89.03285136 -6.27011639 101.97284238 -7.11277028 114.95314026 -8.5955658 C174.76276841 -15.26718495 220.79975799 -7.31837351 268.00900841 30.25365067 C316.08844108 69.20179142 354.32505595 114.76508146 361.01869428 177.86218345 C364.86343333 217.44315467 362.47819645 257.44711809 359.69911927 297.01463979 C358.69333811 311.50730365 358.03805684 325.98777755 357.60353088 340.50843811 C357.57242661 341.5447366 357.54132234 342.5810351 357.50927552 343.64873657 C357.35463092 348.85460832 357.20508572 354.06061316 357.05745733 359.26668799 C356.15773307 390.69291846 354.90055075 422.09226214 352.94614851 453.47132623 C352.79670276 455.8996703 352.65330652 458.3283034 352.51147461 460.75710297 C352.2908516 464.50954047 352.05206154 468.26037466 351.79803482 472.0106956 C351.6665206 473.99783951 351.54987091 475.98595027 351.4338662 477.97405988 C350.61622141 489.30379987 347.87242576 498.31094982 339.32545471 506.09510803 C333.22507408 510.73234128 327.15825932 513.34152022 319.39889908 513.35237694 C318.22966565 513.35882583 317.06043223 513.36527472 315.85576749 513.37191904 C314.580489 513.36882183 313.30521052 513.36572463 311.99128723 513.36253357 C310.61554997 513.36627174 309.23981483 513.37087393 307.86408305 513.37626421 C304.0887952 513.38848916 300.31359601 513.38823435 296.53829288 513.38587546 C292.46453551 513.38546717 288.39080651 513.39650772 284.31706238 513.4059906 C276.33748489 513.42259906 268.35793694 513.42810009 260.37834361 513.42921536 C253.89115353 513.43016595 247.40397319 513.43427683 240.91678619 513.44061661 C222.52015228 513.458229 204.1235417 513.46745554 185.7268993 513.46595566 C184.23944399 513.46583579 184.23944399 513.46583579 182.72193909 513.4657135 C181.23266526 513.46559086 181.23266526 513.46559086 179.71330509 513.46546574 C163.62521759 513.46465296 147.53722375 513.4837887 131.44916335 513.51199023 C114.92587711 513.54072588 98.40263653 513.55453014 81.87932467 513.55280268 C72.60444354 513.55213899 63.32966056 513.55762208 54.05480194 513.57915878 C46.15738406 513.59737958 38.26010884 513.60171058 30.36267903 513.58813994 C26.33506863 513.58161465 22.30773184 513.58147696 18.28014755 513.59884644 C14.58871952 513.6146021 10.89778146 513.61168856 7.2063652 513.59427817 C5.24760062 513.58976863 3.2888207 513.60484609 1.33011556 513.62075746 C-9.11934712 513.53928523 -17.23507643 511.271713 -24.92063904 504.02088928 C-32.81507891 495.35282947 -33.97024082 486.87604624 -33.86985779 475.47792053 C-33.86702789 474.26562775 -33.864198 473.05333496 -33.86128235 471.80430603 C-33.85011196 467.94280514 -33.82501266 464.0815385 -33.79954529 460.22010803 C-33.78951145 457.59771556 -33.7803863 454.97531943 -33.77220154 452.35292053 C-33.75018286 445.93357014 -33.71673627 439.51435583 -33.67454529 433.09510803 C-34.32298904 433.10399048 -34.9714328 433.11287292 -35.63952637 433.12202454 C-42.40428327 433.21069607 -49.16887436 433.27092473 -55.93406677 433.31483459 C-58.45692148 433.33491766 -60.97972982 433.36218961 -63.50242615 433.39686584 C-67.13413451 433.44552716 -70.765226 433.46811068 -74.39720154 433.48573303 C-76.0819735 433.51670074 -76.0819735 433.51670074 -77.80078125 433.54829407 C-84.30743939 433.55014761 -88.53640208 433.25205388 -93.67454529 429.09510803 C-97.01956348 424.13070814 -98.17504808 420.94777817 -98.18247986 414.84657288 C-98.18871982 414.15132696 -98.19495978 413.45608105 -98.20138884 412.73976707 C-98.21724486 410.42817354 -98.20474477 408.11764542 -98.19212341 405.80604553 C-98.19754786 404.14150888 -98.20467233 402.47697703 -98.21336365 400.81245422 C-98.23156166 396.30415775 -98.22454409 391.79622841 -98.21184731 387.28792572 C-98.20170136 382.56397532 -98.21111741 377.84005579 -98.21739197 373.11610413 C-98.22466373 365.18391797 -98.21509304 357.25188091 -98.19602966 349.31971741 C-98.17426182 340.15658049 -98.18131352 330.99379961 -98.20333529 321.83067131 C-98.22150272 313.95529577 -98.22404104 306.08002725 -98.21358061 298.20463753 C-98.20735306 293.50455517 -98.2064897 288.80464002 -98.21972656 284.10456848 C-98.23130401 279.68522777 -98.2232249 275.26634492 -98.20014954 270.84705353 C-98.19487254 269.22776295 -98.19635894 267.60843367 -98.2052002 265.98915863 C-98.21618005 263.77347137 -98.20236524 261.55923851 -98.18247986 259.34364319 C-98.18097176 258.10554901 -98.17946365 256.86745483 -98.17790985 255.59184265 C-97.33305344 249.72285847 -95.2931325 246.40460431 -90.69187927 242.68202209 C-85.56230989 240.1305423 -79.99263997 240.60163355 -74.39720154 240.70448303 C-73.23071579 240.71014282 -72.06423004 240.71580261 -70.86239624 240.72163391 C-67.15352041 240.74394219 -63.44562688 240.79413097 -59.73704529 240.84510803 C-57.21557491 240.86518008 -54.69408932 240.88342961 -52.17259216 240.89979553 C-46.00624399 240.94378893 -39.84046484 241.01064666 -33.67454529 241.09510803 C-33.67823246 239.99627352 -33.68191963 238.897439 -33.68571854 237.76530647 C-33.77455763 211.01546096 -33.84026774 184.26563461 -33.88179398 157.51567268 C-33.90241005 144.57953266 -33.93051259 131.64349015 -33.9763031 118.70741272 C-34.01619986 107.43096726 -34.04198504 96.15459243 -34.05089927 84.87807834 C-34.05610915 78.90847394 -34.06833477 72.93907159 -34.09746552 66.96953201 C-34.12467924 61.34711138 -34.13297813 55.72497544 -34.12697601 50.10249519 C-34.12807357 48.0426065 -34.13599172 45.98270796 -34.15136719 43.92287636 C-34.24511688 30.71180731 -34.13871231 19.95929471 -24.60032654 9.84901428 C-17.37333296 3.26702622 -9.54198557 0.96547969 0 0 Z " fill="#E1E4E6" transform="translate(97.67454528808594,-1.0951080322265625)"/>
<path d="M0 0 C1.49011167 -0.00461135 2.98021878 -0.01096585 4.47031641 -0.01890898 C8.55707904 -0.03559342 12.64346762 -0.02736008 16.73023152 -0.0149641 C21.14067053 -0.00591228 25.55104531 -0.019884 29.96147156 -0.03088379 C38.59834844 -0.04867218 47.23508629 -0.0448276 55.87196863 -0.03323323 C62.8912046 -0.02420044 69.91040161 -0.02297423 76.92964172 -0.02732849 C77.92857764 -0.02794142 78.92751356 -0.02855436 79.95672026 -0.02918586 C81.98602642 -0.03046476 84.01533256 -0.03176161 86.04463869 -0.03307623 C105.07437317 -0.04448296 124.10403057 -0.03136684 143.13375241 -0.00987476 C159.4628641 0.0079963 175.79186204 0.00489222 192.12097168 -0.0135498 C211.08251427 -0.03495485 230.0439893 -0.04338432 249.00554228 -0.03110075 C251.02739174 -0.02982655 253.04924121 -0.02856907 255.0710907 -0.02732849 C256.06588461 -0.02671139 257.06067851 -0.02609429 258.08561769 -0.02545848 C265.09658979 -0.02200449 272.10751904 -0.027835 279.1184845 -0.0372467 C287.66229214 -0.04846399 296.20595278 -0.04543231 304.74974358 -0.02412373 C309.10911533 -0.01360968 313.46824197 -0.00949749 317.82761192 -0.02272034 C321.818616 -0.03464279 325.80914783 -0.02808439 329.80010909 -0.00681013 C331.24348251 -0.00234341 332.68689586 -0.00461197 334.1302436 -0.01431328 C347.56654746 -0.09769351 347.56654746 -0.09769351 353.50036621 4.50793457 C357.95567361 9.31497677 358.62495331 12.71620751 358.64753723 19.15483093 C358.65121392 19.83370292 358.65489061 20.51257492 358.65867871 21.21201879 C358.6697113 23.49189874 358.67355867 25.7717331 358.67736816 28.05163574 C358.68363319 29.68439885 358.69028003 31.31716053 358.69728088 32.94992065 C358.71832088 38.31690478 358.72868393 43.68388918 358.73864746 49.05090332 C358.74269519 50.89908679 358.74681211 52.7472701 358.75099754 54.59545326 C358.77004991 63.27939141 358.78428025 71.96332107 358.79260951 80.6472761 C358.80237933 90.66748556 358.82869196 100.68747396 358.86911041 110.70760554 C358.89928603 118.45465029 358.91407981 126.20163173 358.91739053 133.9487341 C358.91973958 138.57461275 358.92868097 143.20025525 358.9538517 147.82607079 C358.97716245 152.18046621 358.98135365 156.53447051 358.97109032 160.8889122 C358.97059556 162.48361196 358.97689838 164.07833116 358.99064636 165.67297173 C359.11377792 180.80679704 359.11377792 180.80679704 354.50036621 187.50793457 C349.505897 191.48312435 345.8132814 192.63183036 339.52852249 192.64215565 C338.27284383 192.64661349 337.01716517 192.65107134 335.72343564 192.65566427 C334.3221952 192.65557497 332.92095477 192.65538511 331.51971436 192.65510559 C330.03718493 192.65840417 328.55465639 192.66212972 327.07212901 192.66624707 C322.98785342 192.67627579 318.90359253 192.67998526 314.81930637 192.68263638 C310.41835975 192.68653681 306.01742478 192.69611528 301.6164856 192.70484924 C290.98357537 192.7246203 280.35066419 192.73468034 269.71774018 192.74357703 C264.71275338 192.74795859 259.70776764 192.75332571 254.70278168 192.7585659 C238.06923772 192.77557827 221.43569442 192.79007326 204.8021431 192.79731464 C200.48475392 192.79922459 196.16736474 192.80114492 191.84997559 192.80310059 C190.77688695 192.80358433 189.70379831 192.80406807 188.59819183 192.80456647 C171.20812243 192.81286985 153.81812175 192.83821194 136.42808238 192.87068126 C118.58166637 192.90373158 100.73528531 192.92176154 82.88883853 192.92495888 C72.86562003 192.92712578 62.84250176 192.93590078 52.81931305 192.96142006 C44.28457912 192.98309931 35.74996976 192.99119115 27.21521142 192.98145328 C22.85990289 192.97690061 18.50485155 192.97885081 14.14957809 192.99821472 C10.16213978 193.01579028 6.17514733 193.01489462 2.18770465 192.99931743 C0.74554741 192.9969328 -0.69664025 193.00130915 -2.13875088 193.01314608 C-16.04908671 193.12024675 -16.04908671 193.12024675 -21.49963379 188.50793457 C-25.15425056 184.03605578 -26.00052344 180.04301166 -26.00756836 174.25939941 C-26.01380832 173.5641535 -26.02004828 172.86890759 -26.02647734 172.15259361 C-26.04233336 169.84100008 -26.02983327 167.53047196 -26.01721191 165.21887207 C-26.02263636 163.55433542 -26.02976083 161.88980356 -26.03845215 160.22528076 C-26.05665017 155.71698429 -26.04963259 151.20905495 -26.03693581 146.70075226 C-26.02678986 141.97680186 -26.03620591 137.25288233 -26.04248047 132.52893066 C-26.04975223 124.59674451 -26.04018155 116.66470745 -26.02111816 108.73254395 C-25.99935032 99.56940702 -26.00640202 90.40662614 -26.02842379 81.24349785 C-26.04659122 73.36812231 -26.04912954 65.49285379 -26.03866911 57.61746407 C-26.03244156 52.91738171 -26.0315782 48.21746655 -26.04481506 43.51739502 C-26.05639251 39.09805431 -26.0483134 34.67917145 -26.02523804 30.25988007 C-26.01996104 28.64058949 -26.02144744 27.02126021 -26.0302887 25.40198517 C-26.04126856 23.18629791 -26.02745374 20.97206505 -26.00756836 18.75646973 C-26.00606026 17.51837555 -26.00455215 16.28028137 -26.00299835 15.00466919 C-25.16720674 9.19865567 -23.12030995 5.87898228 -18.6558609 2.10218048 C-12.91244399 -0.74031785 -6.24990697 -0.04200808 0 0 Z " fill="#F15642" transform="translate(25.4996337890625,239.4920654296875)"/>
<path d="M0 0 C6.66859393 5.4832487 12.71373784 11.56537937 18.81030273 17.66503906 C19.99338825 18.84512852 21.17667727 20.02501399 22.3601532 21.20471191 C25.55627919 24.39204695 28.74919542 27.58257832 31.94124866 30.77399158 C33.93560031 32.76763084 35.93066294 34.76055574 37.92598152 36.75322723 C44.88571566 43.70372974 51.84288186 50.65679064 58.79760742 57.61230469 C65.28526766 64.10056766 71.77850647 70.58321076 78.27433819 77.06329179 C83.85336262 82.62926874 89.42855355 88.19906562 95.00073773 93.7718904 C98.32832385 97.099732 101.65745898 100.4259877 104.99044609 103.74842072 C108.11800663 106.86634532 111.24079065 109.9889739 114.35988045 113.1153717 C115.50788806 114.26443026 116.65762228 115.41176663 117.80915833 116.55728912 C119.37455929 118.11503985 120.93374352 119.67875227 122.49143982 121.24420166 C123.36726935 122.11948643 124.24309889 122.99477119 125.14546871 123.89657974 C127 126 127 126 127 128 C114.39510984 128.04643635 101.79024019 128.08192656 89.18528175 128.10362434 C83.3316609 128.11404063 77.47809878 128.12816044 71.62451172 128.15087891 C65.97053834 128.17268416 60.3166213 128.18458482 54.6626091 128.18975449 C52.51056406 128.19343647 50.35852193 128.20062634 48.20650101 128.21146011 C45.18138325 128.22607713 42.15649531 128.22797368 39.13134766 128.22705078 C38.25092804 128.23424133 37.37050842 128.24143188 36.46340942 128.24884033 C25.64950677 128.21337597 17.15374176 126.43677481 9 119 C1.3965975 109.80993706 -0.15973855 100.85278946 -0.11352539 89.23095703 C-0.11367142 88.26447739 -0.11381744 87.29799774 -0.1139679 86.30223083 C-0.11327351 83.1207349 -0.10550333 79.93929816 -0.09765625 76.7578125 C-0.09579039 74.54678377 -0.09436728 72.33575463 -0.09336853 70.12472534 C-0.08955662 64.31492973 -0.07973765 58.50515924 -0.06866455 52.69537354 C-0.05842192 46.76306498 -0.0538648 40.83075235 -0.04882812 34.8984375 C-0.03811419 23.26561398 -0.02105369 11.63280908 0 0 Z " fill="#B0B7BD" transform="translate(320,0)"/>
<path d="M0 0 C0.79233536 -0.00570007 1.58467072 -0.01140015 2.40101624 -0.01727295 C4.08479476 -0.02673337 5.76859188 -0.03326105 7.45239258 -0.03710938 C9.99399758 -0.04671938 12.53476011 -0.0776909 15.07617188 -0.109375 C30.74090709 -0.21236205 43.46623095 2.3988338 55.31640625 13.33203125 C58.19491416 16.35572706 60.22685383 19.48149313 62.09765625 23.203125 C62.49082031 23.93402344 62.88398438 24.66492188 63.2890625 25.41796875 C68.2726979 36.40974996 68.03570392 51.24691351 63.97265625 62.515625 C58.87757422 73.5763773 50.65383337 82.77780127 39.09765625 87.203125 C33.42938603 89.13184476 28.36874475 89.52374431 22.40234375 89.5390625 C21.49187286 89.5457193 20.58140198 89.5523761 19.64334106 89.55923462 C17.72888192 89.56931256 15.81438799 89.57405315 13.89990234 89.57373047 C10.97435089 89.57812246 8.05028697 89.61454427 5.125 89.65234375 C3.25911971 89.65820922 1.39323231 89.66218042 -0.47265625 89.6640625 C-1.34358917 89.67843353 -2.21452209 89.69280457 -3.11184692 89.70761108 C-3.92974701 89.70145782 -4.74764709 89.69530457 -5.59033203 89.68896484 C-6.66119553 89.6932399 -6.66119553 89.6932399 -7.75369263 89.69760132 C-11.04695181 88.93971249 -12.61136049 87.67781425 -14.90234375 85.203125 C-15.40792239 82.42311075 -15.5879867 80.24793225 -15.54931641 77.46875 C-15.558078 76.69430542 -15.5668396 75.91986084 -15.5758667 75.12194824 C-15.59785176 72.56510183 -15.58331251 70.0099886 -15.56640625 67.453125 C-15.56977468 65.67480131 -15.57462751 63.89647987 -15.5809021 62.11816406 C-15.58827217 58.39235501 -15.57756393 54.66714557 -15.55419922 50.94140625 C-15.52571094 46.16595739 -15.54211426 41.39191343 -15.57206154 36.61651611 C-15.59013112 32.94471657 -15.58437814 29.27325002 -15.57142258 25.60144043 C-15.5680876 23.84077793 -15.57217888 22.08008518 -15.58382034 20.31945801 C-15.59652411 17.85799112 -15.57716204 15.39879754 -15.54931641 12.9375 C-15.55943756 12.2101062 -15.56955872 11.4827124 -15.57998657 10.73327637 C-15.50092126 6.96005384 -15.19697821 5.49842579 -12.48690796 2.78222656 C-8.17071805 0.1451467 -4.97276771 0.02764377 0 0 Z " fill="#FEFBFB" transform="translate(170.90234375,294.796875)"/>
<path d="M0 0 C0.33 0 0.66 0 1 0 C1.10887507 2.68860931 1.18770594 5.37273158 1.25 8.0625 C1.28351563 8.81466797 1.31703125 9.56683594 1.3515625 10.34179688 C1.45097919 16.0831109 0.28088796 19.27289185 -3 24 C-7.29575092 27.98142769 -10.39794929 29.12539701 -16.17929363 29.12304783 C-17.25815262 29.12503888 -18.3370116 29.12702993 -19.44856328 29.12908131 C-20.63823683 29.12616847 -21.82791038 29.12325563 -23.05363464 29.12025452 C-24.31393205 29.12110894 -25.57422945 29.12196337 -26.87271768 29.12284368 C-30.37763578 29.12508524 -33.88252347 29.12107197 -37.3874377 29.11606562 C-41.16451638 29.11175647 -44.94159327 29.11320788 -48.71867371 29.1139679 C-55.26496476 29.11449283 -61.81124586 29.11134916 -68.35753441 29.10573006 C-77.82242667 29.09761101 -87.2873141 29.09499942 -96.75220946 29.09374207 C-112.10751412 29.09155219 -127.46281346 29.08489383 -142.81811523 29.07543945 C-157.73640923 29.06626369 -172.6547018 29.05918366 -187.57299805 29.05493164 C-188.49220451 29.05466892 -189.41141098 29.05440619 -190.35847219 29.05413551 C-194.96975422 29.05283049 -199.58103627 29.05156678 -204.19231832 29.05032361 C-242.4615493 29.03995298 -280.73077421 29.02226218 -319 29 C-319 23.72 -319 18.44 -319 13 C-317.42517853 12.99853344 -315.85035706 12.99706688 -314.22781372 12.99555588 C-276.8446811 12.95985385 -239.46162757 12.90361261 -202.07856566 12.82207905 C-197.47734487 12.81206159 -192.87612373 12.80221746 -188.27490234 12.79248047 C-187.35888209 12.7905391 -186.44286184 12.78859772 -185.4990834 12.78659752 C-170.66704659 12.75557649 -155.83502525 12.73859658 -141.00296211 12.72680578 C-125.78387232 12.71439476 -110.56486373 12.68689445 -95.3458252 12.64538693 C-85.95486041 12.62025014 -76.5640303 12.60688285 -67.17303139 12.60857043 C-60.73325242 12.60860018 -54.29361063 12.59397298 -47.85388511 12.56783572 C-44.13846938 12.55318811 -40.42333497 12.5449881 -36.70789528 12.55419731 C-32.67731026 12.56401852 -28.64746879 12.54296791 -24.61694336 12.51898193 C-23.44572496 12.52674235 -22.27450657 12.53450277 -21.06779671 12.54249835 C-14.258482 12.47067671 -9.78969764 11.67009223 -4 8 C-2.27957378 5.9787325 -2.27957378 5.9787325 -1.5 3.75 C-1.2009375 3.04359375 -0.901875 2.3371875 -0.59375 1.609375 C-0.29984375 0.81273437 -0.29984375 0.81273437 0 0 Z " fill="#CAD0D7" transform="translate(383,419)"/>
<path d="M0 0 C0 31.68 0 63.36 0 96 C-7.87529997 89.24974288 -7.87529997 89.24974288 -11.18260193 85.94438171 C-11.93267014 85.19713333 -12.68273834 84.44988495 -13.45553589 83.67999268 C-14.25323395 82.88027039 -15.05093201 82.0805481 -15.87280273 81.2565918 C-16.73213913 80.39900772 -17.59147552 79.54142365 -18.47685242 78.65785217 C-20.81295807 76.32537215 -23.14681924 73.99069243 -25.4795177 71.65480781 C-27.92568342 69.20609679 -30.37430328 66.75984173 -32.82252502 64.31318665 C-36.92539264 60.21213234 -41.02616007 56.10898687 -45.12573242 52.00463867 C-49.86993348 47.2549748 -54.61775563 42.50895344 -59.36743206 37.76476544 C-63.45005741 33.68666921 -67.53074208 29.60663875 -71.60979229 25.52496654 C-74.04439856 23.08879917 -76.47968055 20.65331762 -78.91671562 18.2195797 C-81.62498923 15.51471555 -84.32918745 12.80580033 -87.03295898 10.09643555 C-87.84482666 9.2865921 -88.65669434 8.47674866 -89.49316406 7.6423645 C-90.2234935 6.90921524 -90.95382294 6.17606598 -91.70628357 5.42070007 C-92.3461341 4.78047252 -92.98598463 4.14024496 -93.64522457 3.48061657 C-95 2 -95 2 -95 1 C-82.7611933 0.86955395 -70.522386 0.73916459 -58.28357792 0.60884857 C-52.6012424 0.54834256 -46.9189071 0.48781667 -41.23657227 0.42724609 C-35.75771063 0.36884515 -30.27884845 0.31049545 -24.79998589 0.25218201 C-22.70470599 0.22987207 -20.6094263 0.20754334 -18.5141468 0.18519592 C-15.59024227 0.15401387 -12.66633704 0.1228973 -9.74243164 0.09179688 C-8.8670575 0.08244614 -7.99168335 0.0730954 -7.08978271 0.0634613 C-1.11405216 0 -1.11405216 0 0 0 Z " fill="#C9D0D7" transform="translate(448,127)"/>
<path d="M0 0 C0.74794327 -0.00570007 1.49588654 -0.01140015 2.26649475 -0.01727295 C3.85611557 -0.02673258 5.44575608 -0.03326075 7.03540039 -0.03710938 C9.43217043 -0.04671278 11.82804449 -0.07768161 14.22460938 -0.109375 C26.46823634 -0.19513828 37.98806776 0.60331572 47.53515625 9.203125 C55.7255117 19.16864333 56.70497956 28.70689504 55.53515625 41.203125 C53.75880269 49.0478864 49.95646542 54.94376989 43.22265625 59.390625 C42.00306562 60.01389601 40.7737542 60.61853696 39.53515625 61.203125 C38.44847656 61.73164063 37.36179688 62.26015625 36.2421875 62.8046875 C29.9189268 65.14076684 23.17406309 64.51742097 16.53515625 64.390625 C15.17449399 64.37554976 13.81381556 64.36186638 12.453125 64.34960938 C9.14671782 64.31443483 5.84114941 64.26520788 2.53515625 64.203125 C2.55610352 64.84862305 2.57705078 65.49412109 2.59863281 66.15917969 C2.6818983 69.09033568 2.73384831 72.02124277 2.78515625 74.953125 C2.83542969 76.47679687 2.83542969 76.47679687 2.88671875 78.03125 C2.985465 85.53596475 2.985465 85.53596475 0.734375 88.87109375 C-2.56085232 90.86695968 -4.69035846 90.79909636 -8.46484375 90.203125 C-11.97746793 87.51762457 -13.31770687 86.03854823 -14.09303284 81.63635254 C-14.1195249 80.2454505 -14.11876112 78.85385786 -14.09594727 77.46289062 C-14.10310257 76.69965988 -14.11025787 75.93642914 -14.11763 75.15007019 C-14.13449109 72.63588976 -14.11513149 70.12349912 -14.09375 67.609375 C-14.09457895 65.85729831 -14.0970393 64.10522169 -14.10105896 62.35314941 C-14.10391517 58.68457578 -14.08923348 55.01661328 -14.06176758 51.34814453 C-14.02768476 46.65031089 -14.03370449 41.95356984 -14.05243015 37.2556839 C-14.06300863 33.63876267 -14.05405469 30.02209482 -14.03904533 26.40519714 C-14.03386926 24.67328138 -14.03433835 22.94133909 -14.04059029 21.20942688 C-14.04605291 18.78682746 -14.02563602 16.36578165 -13.99829102 13.94335938 C-14.00481689 13.23048264 -14.01134277 12.5176059 -14.01806641 11.78312683 C-13.92648233 7.00136523 -12.84745002 4.56483042 -9.46484375 1.203125 C-6.44541681 -0.30658847 -3.31336682 0.0195371 0 0 Z " fill="#FEFBFB" transform="translate(83.46484375,293.796875)"/>
<path d="M0 0 C0.94470657 -0.00637985 1.88941315 -0.0127597 2.86274719 -0.01933289 C4.39864754 -0.02100212 4.39864754 -0.02100212 5.96557617 -0.02270508 C7.01629807 -0.02603348 8.06701996 -0.02936188 9.14958191 -0.03279114 C11.37640952 -0.03786119 13.60324475 -0.04019944 15.83007812 -0.04003906 C19.23409614 -0.04222066 22.63778762 -0.06036222 26.04174805 -0.0793457 C28.20385631 -0.08228059 30.36596612 -0.08426475 32.52807617 -0.08520508 C34.05486748 -0.09598335 34.05486748 -0.09598335 35.61250305 -0.10697937 C37.04374763 -0.10236443 37.04374763 -0.10236443 38.50390625 -0.09765625 C39.33948563 -0.09908127 40.175065 -0.10050629 41.03596497 -0.10197449 C44.51632476 0.25505838 47.34326509 1.42275275 50.25854492 3.33276367 C52.20960559 6.31069838 51.86996435 8.6933483 51.44604492 12.14526367 C49.22741463 15.0524344 47.92659564 15.9850801 44.44604492 17.14526367 C41.49640379 17.23067267 38.57101473 17.26109294 35.62182617 17.24291992 C34.76042526 17.24150497 33.89902435 17.24009003 33.01152039 17.2386322 C30.26049323 17.23303507 27.50954748 17.22048313 24.75854492 17.20776367 C22.89331172 17.2027483 21.02807725 17.19818546 19.1628418 17.1940918 C14.59051958 17.18391752 10.01837337 17.16434154 5.44604492 17.14526367 C5.44604492 23.74526367 5.44604492 30.34526367 5.44604492 37.14526367 C9.02319336 37.0756543 9.02319336 37.0756543 12.67260742 37.00463867 C14.99599075 36.97339599 17.31935019 36.94913524 19.64282227 36.92553711 C21.25100266 36.9054874 22.85911076 36.87824004 24.46704102 36.84350586 C26.78574512 36.79469104 29.10348117 36.77222939 31.42260742 36.75463867 C32.13534821 36.73399353 32.84808899 36.71334839 33.58242798 36.69207764 C38.68310598 36.68981225 41.51155022 37.95818194 45.44604492 41.14526367 C47.22499745 43.54298229 47.45807545 44.66404262 47.38354492 47.64526367 C46.08367827 51.11157474 44.57589953 52.17263807 41.44604492 54.14526367 C38.5221546 54.4881447 35.99334785 54.61478246 33.08276367 54.53588867 C31.89478935 54.52739899 31.89478935 54.52739899 30.68281555 54.51873779 C28.16576398 54.49643675 25.65016249 54.44625506 23.13354492 54.39526367 C21.42197701 54.37519043 19.71038668 54.3569411 17.9987793 54.34057617 C13.81398007 54.29659292 9.63025792 54.22761137 5.44604492 54.14526367 C5.472229 55.02786865 5.49841309 55.91047363 5.52539062 56.81982422 C5.61084767 60.10937947 5.67340237 63.39774789 5.72070312 66.68798828 C5.7457764 68.10907658 5.77984491 69.53003681 5.82324219 70.95068359 C5.8842235 72.99893829 5.91232254 75.0454825 5.93432617 77.09448242 C5.96051025 78.32513428 5.98669434 79.55578613 6.01367188 80.82373047 C5.28638589 85.07952655 3.8070687 86.52170547 0.44604492 89.14526367 C-3.05395508 89.77026367 -3.05395508 89.77026367 -6.55395508 89.14526367 C-10.06326873 86.45356896 -11.40662666 84.97447019 -12.18887329 80.57176208 C-12.2183902 79.17786814 -12.22067664 77.78322671 -12.20092773 76.38916016 C-12.20968933 75.62432312 -12.21845093 74.85948608 -12.22747803 74.07147217 C-12.24942001 71.55251734 -12.23494078 69.03532892 -12.21801758 66.51635742 C-12.2213869 64.76188318 -12.22624049 63.00741121 -12.23251343 61.25294495 C-12.23987736 57.58018722 -12.22919381 53.9080384 -12.20581055 50.23535156 C-12.17730151 45.52830606 -12.19374249 40.82268463 -12.22367287 36.11569118 C-12.24174115 32.49450448 -12.23599045 28.87365545 -12.22303391 25.25245857 C-12.21969966 23.51691583 -12.22378766 21.78134238 -12.23543167 20.04583549 C-12.24813574 17.6203883 -12.22877429 15.19724798 -12.20092773 12.77197266 C-12.21104889 12.05550064 -12.22117004 11.33902863 -12.2315979 10.60084534 C-12.15186698 6.8516129 -11.83483942 5.42600074 -9.13851929 2.73109436 C-5.7090271 0.62683479 -3.98609333 0.0182361 0 0 Z " fill="#FEFBFA" transform="translate(266.553955078125,294.854736328125)"/>
<path d="M0 0 C31.91935484 0 31.91935484 0 40.9375 8.875 C47.49069125 17.2365011 47.97425339 24.46723833 47 35 C45.48031076 41.70787563 43.05194545 47.29250538 38 52 C25.2538248 59.74767512 17.86636461 57 0 57 C0 38.19 0 19.38 0 0 Z " fill="#F15642" transform="translate(173,311)"/>
<path d="M0 0 C4.16625 -0.0825 8.3325 -0.165 12.625 -0.25 C13.92775879 -0.28641602 15.23051758 -0.32283203 16.57275391 -0.36035156 C27.19690713 -0.46233291 27.19690713 -0.46233291 32 4 C35.92162415 8.3344267 36.62932279 11.87070252 36.390625 17.53125 C35.63601359 22.3003941 33.53046135 25.6086715 29.9375 28.875 C26.3010971 30.98645975 23.35570361 31.11855687 19.23828125 31.09765625 C17.72681519 31.09390991 17.72681519 31.09390991 16.18481445 31.09008789 C14.2680188 31.07643188 14.2680188 31.07643188 12.3125 31.0625 C6.2178125 31.0315625 6.2178125 31.0315625 0 31 C0 20.77 0 10.54 0 0 Z " fill="#F15642" transform="translate(87,311)"/>
</svg>
